<svg width="212" height="286" viewBox="0 0 212 286" fill="none" xmlns="http://www.w3.org/2000/svg">
    <path d="M84.1778 133.54C103.794 133.54 119.697 117.526 119.697 97.7706C119.697 78.0155 103.794 62.0009 84.1778 62.0009C64.5612 62.0009 48.6587 78.0155 48.6587 97.7706C48.6587 117.526 64.5612 133.54 84.1778 133.54Z" fill="#F4FEFF"/>
    <path d="M153.823 123.721C169.85 123.721 182.842 110.637 182.842 94.4975C182.842 78.3578 169.85 65.2739 153.823 65.2739C137.796 65.2739 124.804 78.3578 124.804 94.4975C124.804 110.637 137.796 123.721 153.823 123.721Z" fill="#F4FEFF"/>
    <path d="M47.0337 52.1817C55.8035 52.1817 62.9128 45.0222 62.9128 36.1905C62.9128 27.3589 55.8035 20.1994 47.0337 20.1994C38.2639 20.1994 31.1546 27.3589 31.1546 36.1905C31.1546 45.0222 38.2639 52.1817 47.0337 52.1817Z" fill="#F0749E"/>
    <path d="M72.8953 27.4936C79.2547 27.4936 84.41 22.3019 84.41 15.8977C84.41 9.4934 79.2547 4.30172 72.8953 4.30172C66.5359 4.30172 61.3806 9.4934 61.3806 15.8977C61.3806 22.3019 66.5359 27.4936 72.8953 27.4936Z" fill="#F0749E"/>
    <path d="M73.9632 56.0159C79.3738 56.0159 83.7599 51.5987 83.7599 46.15C83.7599 40.7012 79.3738 36.2841 73.9632 36.2841C68.5526 36.2841 64.1664 40.7012 64.1664 46.15C64.1664 51.5987 68.5526 56.0159 73.9632 56.0159Z" fill="#F0749E"/>
    <path d="M54.4625 67.1442C58.1807 67.1442 61.1949 64.1087 61.1949 60.3643C61.1949 56.6199 58.1807 53.5844 54.4625 53.5844C50.7443 53.5844 47.7301 56.6199 47.7301 60.3643C47.7301 64.1087 50.7443 67.1442 54.4625 67.1442Z" fill="#F0749E"/>
    <path d="M26.3723 92.487C37.1165 92.487 45.8265 83.7155 45.8265 72.8954C45.8265 62.0753 37.1165 53.3039 26.3723 53.3039C15.628 53.3039 6.91808 62.0753 6.91808 72.8954C6.91808 83.7155 15.628 92.487 26.3723 92.487Z" fill="#F0749E"/>
    <path d="M20.9864 139.151C32.5769 139.151 41.9728 129.689 41.9728 118.017C41.9728 106.344 32.5769 96.8822 20.9864 96.8822C9.39594 96.8822 0 106.344 0 118.017C0 129.689 9.39594 139.151 20.9864 139.151Z" fill="#F0749E"/>
    <path d="M58.9663 198.814C70.5055 198.814 79.8598 189.394 79.8598 177.773C79.8598 166.153 70.5055 156.732 58.9663 156.732C47.4271 156.732 38.0727 166.153 38.0727 177.773C38.0727 189.394 47.4271 198.814 58.9663 198.814Z" fill="#F0749E"/>
    <path d="M57.2019 154.581C63.9202 154.581 69.3665 149.097 69.3665 142.331C69.3665 135.565 63.9202 130.08 57.2019 130.08C50.4835 130.08 45.0372 135.565 45.0372 142.331C45.0372 149.097 50.4835 154.581 57.2019 154.581Z" fill="#F0749E"/>
    <path d="M84.8279 158.79C89.623 158.79 93.5103 154.875 93.5103 150.046C93.5103 145.217 89.623 141.302 84.8279 141.302C80.0327 141.302 76.1454 145.217 76.1454 150.046C76.1454 154.875 80.0327 158.79 84.8279 158.79Z" fill="#F0749E"/>
    <path d="M87.2422 176.744C90.8066 176.744 93.696 173.835 93.696 170.245C93.696 166.656 90.8066 163.746 87.2422 163.746C83.6779 163.746 80.7884 166.656 80.7884 170.245C80.7884 173.835 83.6779 176.744 87.2422 176.744Z" fill="#F0749E"/>
    <path d="M28.0902 170.011C35.9112 170.011 42.2514 163.626 42.2514 155.75C42.2514 147.874 35.9112 141.489 28.0902 141.489C20.2692 141.489 13.929 147.874 13.929 155.75C13.929 163.626 20.2692 170.011 28.0902 170.011Z" fill="#F0749E"/>
    <path d="M91.5601 212C98.7401 212 104.561 206.138 104.561 198.908C104.561 191.677 98.7401 185.816 91.5601 185.816C84.3802 185.816 78.5597 191.677 78.5597 198.908C78.5597 206.138 84.3802 212 91.5601 212Z" fill="#F0749E"/>
    <path d="M134.415 205.08C155.981 205.08 173.463 187.474 173.463 165.756C173.463 144.039 155.981 126.433 134.415 126.433C112.85 126.433 95.3675 144.039 95.3675 165.756C95.3675 187.474 112.85 205.08 134.415 205.08Z" fill="#F0749E"/>
    <path d="M187.763 152.711C198.431 152.711 207.078 144.002 207.078 133.26C207.078 122.517 198.431 113.808 187.763 113.808C177.096 113.808 168.449 122.517 168.449 133.26C168.449 144.002 177.096 152.711 187.763 152.711Z" fill="#F0749E"/>
    <path d="M184.095 172.677C189.019 172.677 193.01 168.657 193.01 163.699C193.01 158.741 189.019 154.722 184.095 154.722C179.172 154.722 175.181 158.741 175.181 163.699C175.181 168.657 179.172 172.677 184.095 172.677Z" fill="#F0749E"/>
    <path d="M199.742 113.808C206.512 113.808 212 108.282 212 101.464C212 94.647 206.512 89.1203 199.742 89.1203C192.973 89.1203 187.485 94.647 187.485 101.464C187.485 108.282 192.973 113.808 199.742 113.808Z" fill="#F0749E"/>
    <path d="M202.528 86.689C205.99 86.689 208.796 83.8629 208.796 80.3767C208.796 76.8905 205.99 74.0644 202.528 74.0644C199.066 74.0644 196.26 76.8905 196.26 80.3767C196.26 83.8629 199.066 86.689 202.528 86.689Z" fill="#F0749E"/>
    <path d="M191.431 75.2333C197.637 75.2333 202.667 70.1673 202.667 63.9179C202.667 57.6686 197.637 52.6025 191.431 52.6025C185.226 52.6025 180.195 57.6686 180.195 63.9179C180.195 70.1673 185.226 75.2333 191.431 75.2333Z" fill="#F0749E"/>
    <path d="M167.566 59.8032C177.336 59.8032 185.256 51.8273 185.256 41.9885C185.256 32.1497 177.336 24.1738 167.566 24.1738C157.796 24.1738 149.876 32.1497 149.876 41.9885C149.876 51.8273 157.796 59.8032 167.566 59.8032Z" fill="#F0749E"/>
    <path d="M116.447 63.31C133.807 63.31 147.88 49.1376 147.88 31.655C147.88 14.1724 133.807 0 116.447 0C99.0866 0 85.0135 14.1724 85.0135 31.655C85.0135 49.1376 99.0866 63.31 116.447 63.31Z" fill="#F0749E"/>
    <path d="M104.375 89.5412C104.979 91.318 105.304 93.7494 105.304 96.8822C105.304 100.015 104.979 102.446 104.375 104.176C103.771 105.906 102.657 107.216 101.125 108.104C99.5926 108.992 97.4568 109.507 94.8103 109.741C92.1638 109.928 88.7744 110.068 84.6421 110.068C80.5098 110.068 77.074 109.974 74.4275 109.741C71.7345 109.554 69.5987 108.992 68.0665 108.104C66.5343 107.216 65.4665 105.953 64.8629 104.176C64.2593 102.446 63.9807 100.015 63.9807 96.8822C63.9807 93.7494 64.2593 91.318 64.8629 89.5412C65.4665 87.7644 66.5343 86.4552 68.0665 85.6135C69.5987 84.7719 71.7345 84.2576 74.4275 84.0705C77.1204 83.8835 80.5098 83.7432 84.6421 83.7432C88.7744 83.7432 92.1638 83.8367 94.8103 84.0705C97.4568 84.2576 99.5462 84.8186 101.125 85.6135C102.657 86.4552 103.771 87.7644 104.375 89.5412Z" fill="#F0749E"/>
    <path d="M106.65 123.815C106.511 123.628 106.371 123.441 106.232 123.254L105.582 122.365L105.303 121.991C105.211 121.898 105.164 121.804 105.071 121.711L105.025 121.664C104.421 120.962 103.957 120.448 103.539 120.168C103.075 119.84 102.564 119.7 102.1 119.7C101.496 119.7 100.8 119.887 100.103 120.261C99.3604 120.635 98.4318 121.009 97.271 121.336C95.6924 121.757 93.8352 122.038 91.7459 122.225C89.6565 122.412 87.2886 122.505 84.6421 122.505C78.4204 122.505 73.5917 121.944 70.1094 120.822C66.6272 119.7 64.0735 118.063 62.402 115.913C60.7306 113.762 59.7091 111.096 59.3377 107.917C58.9662 104.737 58.7805 101.044 58.7805 96.8821C58.7805 92.7207 58.9662 89.0268 59.3377 85.8473C59.7091 82.6678 60.7306 80.0026 62.402 77.805C64.0735 75.6541 66.6272 74.0176 70.1094 72.8954C73.5917 71.7732 78.4204 71.2121 84.6421 71.2121C90.8637 71.2121 95.6924 71.7732 99.1747 72.8954C102.657 74.0176 105.211 75.6541 106.882 77.805C108.554 79.9558 109.575 82.621 109.946 85.8473C110.318 89.0268 110.504 92.7207 110.504 96.8821C110.504 99.1265 110.457 101.184 110.411 103.148C110.318 105.112 110.132 106.888 109.807 108.572C109.621 109.553 109.436 110.348 109.343 110.956C109.25 111.564 109.204 112.125 109.204 112.64C109.204 113.341 109.343 113.902 109.668 114.37C109.993 114.837 110.504 115.538 111.293 116.52L112.732 118.391C112.825 118.531 112.918 118.624 113.011 118.765C119.047 110.676 121.833 100.015 119.511 88.6995C116.586 74.6254 105.628 63.5438 91.6994 60.5513C67.7879 55.4547 46.7551 73.7838 46.9873 97.0224C47.173 117.175 63.6557 133.634 83.667 133.587C92.7673 133.587 101.032 130.267 107.439 124.75L106.65 123.815Z" fill="#F0749E"/>
    <path d="M137.247 87.063C136.737 88.5593 136.458 90.5699 136.458 93.1883C136.458 95.8067 136.737 97.8173 137.247 99.2668C137.758 100.716 138.687 101.792 139.94 102.54C141.24 103.241 143.005 103.709 145.187 103.896C147.416 104.083 150.201 104.176 153.684 104.176C157.166 104.176 159.952 104.083 162.227 103.896C164.455 103.709 166.22 103.288 167.52 102.54C168.82 101.839 169.702 100.716 170.213 99.2668C170.724 97.8173 170.956 95.8067 170.956 93.1883C170.956 90.5699 170.724 88.5593 170.213 87.063C169.748 85.5668 168.82 84.4914 167.52 83.79C166.22 83.0886 164.455 82.6678 162.227 82.4808C159.998 82.2937 157.166 82.2002 153.684 82.2002C150.201 82.2002 147.416 82.2937 145.187 82.4808C142.958 82.6678 141.24 83.0886 139.94 83.79C138.64 84.4914 137.758 85.5668 137.247 87.063Z" fill="#F0749E"/>
    <path d="M134.74 116.333C140.08 120.916 146.998 123.674 154.566 123.674C171.234 123.674 184.978 110.021 185.117 93.1883C185.303 73.8773 167.752 58.5875 147.88 62.8425C136.272 65.3206 127.126 74.5787 124.711 86.2681C122.761 95.6665 125.083 104.55 130.097 111.284C130.144 111.19 130.236 111.097 130.329 110.956L131.536 109.413C132.187 108.618 132.604 108.011 132.883 107.636C133.162 107.262 133.254 106.795 133.254 106.187C133.254 105.766 133.208 105.299 133.115 104.784C133.022 104.27 132.883 103.615 132.744 102.774C132.465 101.371 132.279 99.8747 132.233 98.2849C132.187 96.6484 132.14 94.9183 132.14 93.0948C132.14 89.6347 132.279 86.5487 132.604 83.8835C132.929 81.2183 133.765 79.0207 135.158 77.1971C136.551 75.4203 138.687 74.0643 141.565 73.1292C144.444 72.194 148.483 71.7265 153.684 71.7265C158.884 71.7265 162.877 72.194 165.802 73.1292C168.681 74.0643 170.816 75.4203 172.209 77.1971C173.602 78.9739 174.438 81.2183 174.763 83.8835C175.088 86.5487 175.227 89.5879 175.227 93.0948C175.227 96.6016 175.088 99.6409 174.763 102.306C174.438 104.971 173.602 107.169 172.209 108.992C170.816 110.769 168.681 112.125 165.802 113.06C162.923 113.996 158.884 114.463 153.684 114.463C151.501 114.463 149.551 114.37 147.787 114.229C146.023 114.089 144.49 113.855 143.19 113.481C142.215 113.201 141.426 112.873 140.823 112.593C140.219 112.265 139.662 112.125 139.151 112.125C138.733 112.125 138.362 112.265 137.944 112.499C137.572 112.733 137.155 113.154 136.69 113.762C136.69 113.762 136.69 113.808 136.644 113.808C136.597 113.902 136.505 113.949 136.458 114.042L136.226 114.37L135.669 115.118C135.576 115.258 135.437 115.445 135.297 115.585L134.74 116.333Z" fill="#F0749E"/>
    <path d="M50.0952 259.932C50.0952 262.021 50.0476 263.968 50 265.772C49.9524 267.576 49.7143 269.286 49.381 270.805C49.1905 271.708 49.0476 272.467 48.9524 273.037C48.8571 273.607 48.8095 274.129 48.8095 274.604C48.8095 275.269 48.9524 275.791 49.2381 276.218C49.5238 276.646 50.0476 277.311 50.8095 278.213L52.1905 279.97C52.7143 280.634 53 281.157 53 281.632C53 282.154 52.6667 282.629 52 283.103L49.381 285.145C48.6667 285.715 48.0952 286 47.6667 286C47.2857 286 46.7619 285.62 46.1429 284.813L45.0476 283.341C44.381 282.486 43.8095 281.916 43.3333 281.632C42.8571 281.347 42.381 281.204 41.9524 281.204C41.3333 281.204 40.7143 281.394 40 281.726C39.2857 282.106 38.381 282.439 37.2381 282.724C35.7143 283.104 33.9048 283.388 31.9048 283.531C29.8571 283.673 27.5714 283.768 25.0476 283.768C19.0476 283.768 14.3333 283.246 11 282.201C7.61905 281.157 5.14286 279.637 3.52381 277.643C1.90476 275.649 0.952381 273.132 0.571429 270.188C0.190476 267.197 0 263.778 0 259.884C0 255.991 0.190476 252.572 0.571429 249.58C0.952381 246.589 1.90476 244.12 3.52381 242.125C5.14286 240.131 7.61905 238.612 11 237.567C14.381 236.522 19.0476 236 25.0476 236C31.0476 236 35.7143 236.522 39.0952 237.567C42.4762 238.612 44.9524 240.131 46.5714 242.125C48.1905 244.12 49.1429 246.636 49.5238 249.58C49.9524 252.619 50.0952 256.038 50.0952 259.932ZM5.09524 259.932C5.09524 262.828 5.38095 265.107 5.95238 266.722C6.52381 268.336 7.57143 269.571 9.04762 270.378C10.5714 271.185 12.619 271.708 15.1905 271.897C17.8095 272.087 21.0952 272.182 25.0952 272.182C29.0952 272.182 32.381 272.087 34.9524 271.897C37.5238 271.708 39.5714 271.185 41.0476 270.378C42.5714 269.571 43.619 268.336 44.1905 266.722C44.8095 265.107 45.0952 262.828 45.0952 259.932C45.0952 257.035 44.8095 254.756 44.1905 253.094C43.5714 251.432 42.5238 250.245 41.0476 249.438C39.5238 248.678 37.5238 248.156 34.9524 247.966C32.381 247.776 29.0952 247.681 25.0952 247.681C21.0952 247.681 17.8095 247.776 15.1905 247.966C12.5714 248.156 10.5238 248.631 9.04762 249.438C7.52381 250.198 6.52381 251.432 5.95238 253.094C5.38095 254.756 5.09524 257.035 5.09524 259.932Z" fill="#F0749E"/>
    <path d="M61.0539 236C61.5268 236 61.8106 236.048 61.9052 236.143C61.9998 236.238 62.0471 236.524 62.0471 237.001V259.454C62.0471 262.41 62.2363 264.698 62.662 266.414C63.0404 268.131 63.8917 269.37 65.1688 270.228C66.4458 271.086 68.1958 271.563 70.4661 271.801C72.7364 271.992 75.7635 272.087 79.4527 272.087C83.1419 272.087 86.169 271.992 88.4393 271.801C90.7096 271.611 92.4596 271.086 93.6893 270.228C94.9191 269.418 95.7231 268.131 96.1961 266.414C96.6218 264.698 96.8583 262.41 96.8583 259.454V237.001C96.8583 236.524 96.9056 236.238 97.0002 236.143C97.0948 236.048 97.3786 236 97.8515 236H101.352C101.825 236 102.108 236.048 102.203 236.143C102.298 236.238 102.345 236.524 102.345 237.001V259.454C102.345 263.459 102.203 266.986 101.966 270.085C101.683 273.136 100.879 275.71 99.4124 277.808C97.9934 279.858 95.7231 281.431 92.6015 282.527C89.4798 283.576 85.1284 284.148 79.5 284.148C73.8716 284.148 69.4256 283.624 66.3512 282.527C63.2769 281.479 61.0066 279.905 59.5876 277.808C58.1687 275.758 57.3173 273.184 57.0336 270.085C56.7498 267.034 56.6552 263.459 56.6552 259.454V237.001C56.6552 236.524 56.7025 236.238 56.7971 236.143C56.8917 236.048 57.1754 236 57.6484 236H61.0539Z" fill="#F0749E"/>
    <path d="M115.706 236C116.16 236 116.432 236.048 116.523 236.143C116.614 236.238 116.659 236.524 116.659 237.001V259.454C116.659 262.41 116.841 264.698 117.249 266.414C117.613 268.131 118.43 269.37 119.656 270.228C120.882 271.086 122.562 271.563 124.741 271.801C126.921 271.992 129.827 272.087 133.368 272.087C136.91 272.087 139.816 271.992 141.995 271.801C144.175 271.611 145.855 271.086 147.036 270.228C148.216 269.418 148.988 268.131 149.442 266.414C149.851 264.698 150.078 262.41 150.078 259.454V237.001C150.078 236.524 150.123 236.238 150.214 236.143C150.305 236.048 150.577 236 151.031 236H154.391C154.845 236 155.118 236.048 155.209 236.143C155.299 236.238 155.345 236.524 155.345 237.001V259.454C155.345 263.459 155.209 266.986 154.982 270.085C154.709 273.136 153.937 275.71 152.53 277.808C151.167 279.858 148.988 281.431 145.991 282.527C142.994 283.576 138.817 284.148 133.414 284.148C128.01 284.148 123.742 283.624 120.791 282.527C117.84 281.431 115.66 279.905 114.298 277.808C112.936 275.758 112.118 273.184 111.846 270.085C111.574 267.034 111.483 263.459 111.483 259.454V237.001C111.483 236.524 111.528 236.238 111.619 236.143C111.71 236.048 111.982 236 112.436 236H115.706Z" fill="#F0749E"/>
    <path d="M165.473 284.148C165.001 284.148 164.718 284.102 164.624 284.01C164.53 283.918 164.483 283.642 164.483 283.182V261.368C164.483 257.548 164.718 254.143 165.143 251.244C165.567 248.298 166.604 245.859 168.207 243.88C169.81 241.902 172.214 240.383 175.325 239.371C178.483 238.358 182.773 237.852 188.241 237.852C193.71 237.852 197.952 238.358 201.111 239.371C204.269 240.383 206.673 241.902 208.276 243.88C209.879 245.859 210.916 248.298 211.34 251.244C211.764 254.189 212 257.548 212 261.368V283.182C212 283.642 211.953 283.918 211.859 284.01C211.764 284.102 211.481 284.148 211.01 284.148H208.04C207.569 284.148 207.286 284.102 207.192 284.01C207.097 283.918 207.05 283.642 207.05 283.182V273.978C207.05 273.517 207.003 273.241 206.909 273.149C206.815 273.057 206.532 273.011 206.06 273.011H170.422C169.951 273.011 169.668 273.057 169.574 273.149C169.48 273.241 169.432 273.517 169.432 273.978V283.182C169.432 283.642 169.385 283.918 169.291 284.01C169.197 284.102 168.914 284.148 168.443 284.148H165.473ZM169.432 263.485C169.432 263.853 169.48 264.129 169.574 264.267C169.668 264.405 169.951 264.452 170.422 264.452H206.06C206.532 264.452 206.815 264.405 206.909 264.313C207.003 264.221 207.05 263.945 207.05 263.485V261.368C207.05 258.515 206.767 256.26 206.202 254.649C205.636 253.038 204.646 251.842 203.232 251.06C201.818 250.277 199.885 249.771 197.434 249.587C194.982 249.403 191.918 249.311 188.241 249.311C184.564 249.311 181.453 249.403 179.049 249.587C176.598 249.771 174.665 250.277 173.251 251.06C171.837 251.842 170.847 253.038 170.281 254.649C169.715 256.26 169.432 258.469 169.432 261.368V263.485Z" fill="#F0749E"/>
</svg>
