<svg xmlns="http://www.w3.org/2000/svg" width="52" height="52" viewBox="0 0 52 52" fill="none">
  <g clip-path="url(#clip0_998_7511)">
    <path d="M20.6429 32.6253C25.4535 32.6253 29.3532 28.7127 29.3532 23.8864C29.3532 19.06 25.4535 15.1475 20.6429 15.1475C15.8324 15.1475 11.9326 19.06 11.9326 23.8864C11.9326 28.7127 15.8324 32.6253 20.6429 32.6253Z" fill="#transparent"/>
    <path d="M37.7217 30.2263C41.6519 30.2263 44.838 27.0297 44.838 23.0866C44.838 19.1435 41.6519 15.947 37.7217 15.947C33.7915 15.947 30.6055 19.1435 30.6055 23.0866C30.6055 27.0297 33.7915 30.2263 37.7217 30.2263Z" fill="transparent"/>
    <path d="M11.5342 12.7484C13.6848 12.7484 15.4282 10.9993 15.4282 8.84162C15.4282 6.68395 13.6848 4.93481 11.5342 4.93481C9.38355 4.93481 7.64014 6.68395 7.64014 8.84162C7.64014 10.9993 9.38355 12.7484 11.5342 12.7484Z" fill="#F4FEFF"/>
    <path d="M17.876 6.71703C19.4355 6.71703 20.6997 5.44865 20.6997 3.88403C20.6997 2.3194 19.4355 1.05103 17.876 1.05103C16.3165 1.05103 15.0522 2.3194 15.0522 3.88403C15.0522 5.44865 16.3165 6.71703 17.876 6.71703Z" fill="#F4FEFF"/>
    <path d="M18.1378 13.6852C19.4646 13.6852 20.5403 12.606 20.5403 11.2748C20.5403 9.94365 19.4646 8.8645 18.1378 8.8645C16.811 8.8645 15.7354 9.94365 15.7354 11.2748C15.7354 12.606 16.811 13.6852 18.1378 13.6852Z" fill="#F4FEFF"/>
    <path d="M13.3561 16.4041C14.2679 16.4041 15.007 15.6625 15.007 14.7477C15.007 13.8329 14.2679 13.0913 13.3561 13.0913C12.4442 13.0913 11.7051 13.8329 11.7051 14.7477C11.7051 15.6625 12.4442 16.4041 13.3561 16.4041Z" fill="#F4FEFF"/>
    <path d="M6.46703 22.5955C9.10184 22.5955 11.2378 20.4526 11.2378 17.8091C11.2378 15.1657 9.10184 13.0227 6.46703 13.0227C3.83222 13.0227 1.69629 15.1657 1.69629 17.8091C1.69629 20.4526 3.83222 22.5955 6.46703 22.5955Z" fill="#F4FEFF"/>
    <path d="M5.14649 33.9959C7.98881 33.9959 10.293 31.6842 10.293 28.8326C10.293 25.9809 7.98881 23.6692 5.14649 23.6692C2.30416 23.6692 0 25.9809 0 28.8326C0 31.6842 2.30416 33.9959 5.14649 33.9959Z" fill="#F4FEFF"/>
    <path d="M14.4601 48.5723C17.2899 48.5723 19.5839 46.2708 19.5839 43.4318C19.5839 40.5928 17.2899 38.2913 14.4601 38.2913C11.6304 38.2913 9.33643 40.5928 9.33643 43.4318C9.33643 46.2708 11.6304 48.5723 14.4601 48.5723Z" fill="#F4FEFF"/>
    <path d="M14.0276 37.7656C15.6751 37.7656 17.0107 36.4257 17.0107 34.7727C17.0107 33.1198 15.6751 31.7798 14.0276 31.7798C12.38 31.7798 11.0444 33.1198 11.0444 34.7727C11.0444 36.4257 12.38 37.7656 14.0276 37.7656Z" fill="#F4FEFF"/>
    <path d="M20.8025 38.7938C21.9784 38.7938 22.9317 37.8374 22.9317 36.6577C22.9317 35.4779 21.9784 34.5215 20.8025 34.5215C19.6266 34.5215 18.6733 35.4779 18.6733 36.6577C18.6733 37.8374 19.6266 38.7938 20.8025 38.7938Z" fill="#F4FEFF"/>
    <path d="M21.3942 43.1803C22.2683 43.1803 22.9768 42.4694 22.9768 41.5925C22.9768 40.7155 22.2683 40.0046 21.3942 40.0046C20.5201 40.0046 19.8115 40.7155 19.8115 41.5925C19.8115 42.4694 20.5201 43.1803 21.3942 43.1803Z" fill="#F4FEFF"/>
    <path d="M6.88875 41.5354C8.80669 41.5354 10.3615 39.9755 10.3615 38.0513C10.3615 36.127 8.80669 34.5671 6.88875 34.5671C4.97081 34.5671 3.41602 36.127 3.41602 38.0513C3.41602 39.9755 4.97081 41.5354 6.88875 41.5354Z" fill="#F4FEFF"/>
    <path d="M22.4532 51.7936C24.214 51.7936 25.6413 50.3615 25.6413 48.595C25.6413 46.8285 24.214 45.3965 22.4532 45.3965C20.6925 45.3965 19.2651 46.8285 19.2651 48.595C19.2651 50.3615 20.6925 51.7936 22.4532 51.7936Z" fill="#F4FEFF"/>
    <path d="M32.9624 50.1031C38.2509 50.1031 42.538 45.8018 42.538 40.496C42.538 35.1902 38.2509 30.8889 32.9624 30.8889C27.6739 30.8889 23.3867 35.1902 23.3867 40.496C23.3867 45.8018 27.6739 50.1031 32.9624 50.1031Z" fill="#F4FEFF"/>
    <path d="M46.0452 37.3087C48.6611 37.3087 50.7818 35.1811 50.7818 32.5566C50.7818 29.932 48.6611 27.8044 46.0452 27.8044C43.4292 27.8044 41.3086 29.932 41.3086 32.5566C41.3086 35.1811 43.4292 37.3087 46.0452 37.3087Z" fill="#F4FEFF"/>
    <path d="M45.1456 42.1866C46.353 42.1866 47.3317 41.2047 47.3317 39.9933C47.3317 38.782 46.353 37.8 45.1456 37.8C43.9382 37.8 42.9595 38.782 42.9595 39.9933C42.9595 41.2047 43.9382 42.1866 45.1456 42.1866Z" fill="#F4FEFF"/>
    <path d="M48.983 27.8045C50.6431 27.8045 51.9889 26.4543 51.9889 24.7887C51.9889 23.1232 50.6431 21.7729 48.983 21.7729C47.3228 21.7729 45.9771 23.1232 45.9771 24.7887C45.9771 26.4543 47.3228 27.8045 48.983 27.8045Z" fill="#F4FEFF"/>
    <path d="M49.666 21.179C50.5149 21.179 51.2031 20.4886 51.2031 19.6369C51.2031 18.7852 50.5149 18.0947 49.666 18.0947C48.8171 18.0947 48.1289 18.7852 48.1289 19.6369C48.1289 20.4886 48.8171 21.179 49.666 21.179Z" fill="#F4FEFF"/>
    <path d="M46.9444 18.3802C48.4662 18.3802 49.6998 17.1426 49.6998 15.6158C49.6998 14.089 48.4662 12.8513 46.9444 12.8513C45.4226 12.8513 44.189 14.089 44.189 15.6158C44.189 17.1426 45.4226 18.3802 46.9444 18.3802Z" fill="#F4FEFF"/>
    <path d="M41.092 14.6106C43.4878 14.6106 45.4301 12.662 45.4301 10.2583C45.4301 7.8546 43.4878 5.90601 41.092 5.90601C38.6961 5.90601 36.7539 7.8546 36.7539 10.2583C36.7539 12.662 38.6961 14.6106 41.092 14.6106Z" fill="#F4FEFF"/>
    <path d="M28.556 15.4673C32.8132 15.4673 36.2643 12.0048 36.2643 7.73363C36.2643 3.46247 32.8132 0 28.556 0C24.2988 0 20.8477 3.46247 20.8477 7.73363C20.8477 12.0048 24.2988 15.4673 28.556 15.4673Z" fill="#F4FEFF"/>
    <path d="M25.5958 21.876C25.7438 22.3101 25.8235 22.9041 25.8235 23.6694C25.8235 24.4348 25.7438 25.0288 25.5958 25.4515C25.4478 25.8742 25.1745 26.194 24.7988 26.4111C24.423 26.6281 23.8993 26.7538 23.2503 26.8109C22.6013 26.8566 21.7701 26.8908 20.7567 26.8908C19.7434 26.8908 18.9008 26.868 18.2518 26.8109C17.5914 26.7652 17.0677 26.6281 16.6919 26.4111C16.3162 26.194 16.0543 25.8856 15.9063 25.4515C15.7583 25.0288 15.6899 24.4348 15.6899 23.6694C15.6899 22.9041 15.7583 22.3101 15.9063 21.876C16.0543 21.4419 16.3162 21.122 16.6919 20.9164C17.0677 20.7108 17.5914 20.5851 18.2518 20.5394C18.9122 20.4937 19.7434 20.4595 20.7567 20.4595C21.7701 20.4595 22.6013 20.4823 23.2503 20.5394C23.8993 20.5851 24.4116 20.7222 24.7988 20.9164C25.1745 21.122 25.4478 21.4419 25.5958 21.876Z" fill="#F4FEFF"/>
    <path d="M26.1535 30.2492C26.1193 30.2035 26.0852 30.1579 26.051 30.1122L25.8916 29.8951L25.8233 29.8037C25.8005 29.7809 25.7891 29.758 25.7664 29.7352L25.755 29.7238C25.6069 29.5524 25.4931 29.4268 25.3906 29.3582C25.2768 29.2782 25.1515 29.244 25.0376 29.244C24.8896 29.244 24.7188 29.2897 24.5481 29.3811C24.3659 29.4724 24.1382 29.5638 23.8535 29.6438C23.4664 29.7466 23.0109 29.8151 22.4986 29.8608C21.9862 29.9065 21.4055 29.9294 20.7565 29.9294C19.2308 29.9294 18.0466 29.7923 17.1927 29.5181C16.3387 29.244 15.7125 28.8442 15.3026 28.3187C14.8927 27.7932 14.6422 27.1421 14.5511 26.3653C14.46 25.5885 14.4145 24.686 14.4145 23.6694C14.4145 22.6527 14.46 21.7502 14.5511 20.9734C14.6422 20.1967 14.8927 19.5455 15.3026 19.0086C15.7125 18.4831 16.3387 18.0833 17.1927 17.8092C18.0466 17.535 19.2308 17.3979 20.7565 17.3979C22.2822 17.3979 23.4664 17.535 24.3203 17.8092C25.1743 18.0833 25.8005 18.4831 26.2104 19.0086C26.6203 19.5341 26.8708 20.1852 26.9619 20.9734C27.053 21.7502 27.0985 22.6527 27.0985 23.6694C27.0985 24.2177 27.0871 24.7203 27.0757 25.2001C27.053 25.6799 27.0074 26.114 26.9277 26.5252C26.8822 26.7651 26.8366 26.9593 26.8139 27.1078C26.7911 27.2563 26.7797 27.3934 26.7797 27.519C26.7797 27.6904 26.8139 27.8275 26.8936 27.9417C26.9733 28.0559 27.0985 28.2273 27.2921 28.4672L27.645 28.9241C27.6678 28.9584 27.6906 28.9812 27.7134 29.0155C29.1935 27.0393 29.8767 24.4347 29.3074 21.6703C28.5901 18.2318 25.903 15.5245 22.4872 14.7934C16.6234 13.5482 11.4655 18.0262 11.5224 23.7036C11.568 28.6271 15.61 32.6481 20.5174 32.6367C22.7491 32.6367 24.7758 31.8257 26.347 30.4777L26.1535 30.2492Z" fill="#F4FEFF"/>
    <path d="M33.6569 21.2703C33.5317 21.6359 33.4634 22.1271 33.4634 22.7668C33.4634 23.4065 33.5317 23.8977 33.6569 24.2518C33.7822 24.6059 34.0099 24.8687 34.3173 25.0515C34.6361 25.2228 35.0688 25.337 35.604 25.3827C36.1505 25.4284 36.8336 25.4513 37.6876 25.4513C38.5416 25.4513 39.2247 25.4284 39.7826 25.3827C40.3292 25.337 40.7618 25.2342 41.0806 25.0515C41.3994 24.8801 41.6158 24.6059 41.741 24.2518C41.8663 23.8977 41.9232 23.4065 41.9232 22.7668C41.9232 22.1271 41.8663 21.6359 41.741 21.2703C41.6272 20.9048 41.3994 20.642 41.0806 20.4707C40.7618 20.2993 40.3292 20.1965 39.7826 20.1508C39.2361 20.1051 38.5416 20.0823 37.6876 20.0823C36.8336 20.0823 36.1505 20.1051 35.604 20.1508C35.0574 20.1965 34.6361 20.2993 34.3173 20.4707C33.9985 20.642 33.7822 20.9048 33.6569 21.2703Z" fill="#F4FEFF"/>
    <path d="M33.0421 28.4213C34.3515 29.5408 36.048 30.2148 37.9039 30.2148C41.9915 30.2148 45.3618 26.8792 45.396 22.7667C45.4415 18.0489 41.1376 14.3134 36.2644 15.3529C33.4178 15.9584 31.1748 18.2202 30.5827 21.0761C30.1045 23.3722 30.6738 25.5426 31.9035 27.1876C31.9149 27.1647 31.9377 27.1419 31.9604 27.1076L32.2565 26.7306C32.4159 26.5365 32.5183 26.3879 32.5867 26.2966C32.655 26.2052 32.6778 26.0909 32.6778 25.9424C32.6778 25.8396 32.6664 25.7254 32.6436 25.5997C32.6208 25.4741 32.5867 25.3141 32.5525 25.1085C32.4842 24.7658 32.4386 24.4003 32.4273 24.0119C32.4159 23.6121 32.4045 23.1894 32.4045 22.7439C32.4045 21.8986 32.4386 21.1446 32.5183 20.4935C32.598 19.8423 32.803 19.3054 33.1446 18.8599C33.4862 18.4258 34.0099 18.0946 34.7158 17.8661C35.4218 17.6376 36.4124 17.5234 37.6876 17.5234C38.9628 17.5234 39.942 17.6376 40.6594 17.8661C41.3653 18.0946 41.8891 18.4258 42.2306 18.8599C42.5722 19.294 42.7772 19.8423 42.8569 20.4935C42.9366 21.1446 42.9707 21.8871 42.9707 22.7439C42.9707 23.6006 42.9366 24.3432 42.8569 24.9943C42.7772 25.6454 42.5722 26.1823 42.2306 26.6278C41.8891 27.0619 41.3653 27.3932 40.6594 27.6217C39.9534 27.8501 38.9628 27.9644 37.6876 27.9644C37.1525 27.9644 36.6742 27.9415 36.2416 27.9073C35.8089 27.873 35.4332 27.8159 35.1144 27.7245C34.8753 27.6559 34.6817 27.576 34.5337 27.5074C34.3857 27.4275 34.249 27.3932 34.1238 27.3932C34.0213 27.3932 33.9302 27.4275 33.8277 27.4846C33.7367 27.5417 33.6342 27.6445 33.5203 27.793C33.5203 27.793 33.5203 27.8044 33.5089 27.8044C33.4975 27.8273 33.4748 27.8387 33.4634 27.8616L33.4065 27.9415L33.2698 28.1243C33.2471 28.1586 33.2129 28.2043 33.1787 28.2385L33.0421 28.4213Z" fill="#F4FEFF"/>
  </g>
  <defs>
    <clipPath id="clip0_998_7511">
      <rect width="52" height="52" fill="white"/>
    </clipPath>
  </defs>
</svg>