<svg xmlns="http://www.w3.org/2000/svg" width="78" height="19" viewBox="0 0 78 19" fill="none">
  <path d="M18.4313 9.11538C18.4313 9.86752 18.4137 10.5684 18.3962 11.2179C18.3787 11.8675 18.2911 12.4829 18.1685 13.0299C18.0984 13.3547 18.0458 13.6282 18.0108 13.8333C17.9757 14.0385 17.9582 14.2265 17.9582 14.3974C17.9582 14.6368 18.0108 14.8248 18.1159 14.9786C18.221 15.1325 18.4137 15.3718 18.6941 15.6966L19.2022 16.3291C19.3949 16.5684 19.5 16.7564 19.5 16.9273C19.5 17.1154 19.3774 17.2863 19.1321 17.4573L18.1685 18.1923C17.9057 18.3974 17.6954 18.5 17.5377 18.5C17.3976 18.5 17.2049 18.3632 16.9771 18.0727L16.5741 17.5427C16.3288 17.235 16.1186 17.0299 15.9434 16.9273C15.7682 16.8248 15.593 16.7735 15.4353 16.7735C15.2075 16.7735 14.9798 16.8419 14.717 16.9615C14.4542 17.0983 14.1213 17.2179 13.7008 17.3205C13.1402 17.4573 12.4744 17.5598 11.7385 17.6111C10.9852 17.6624 10.1442 17.6966 9.21563 17.6966C7.00809 17.6966 5.27358 17.5085 4.04717 17.1325C2.80323 16.7564 1.89218 16.2094 1.2965 15.4914C0.700809 14.7735 0.350404 13.8675 0.210243 12.8077C0.0700809 11.7308 0 10.5 0 9.09829C0 7.69658 0.0700809 6.46581 0.210243 5.38889C0.350404 4.31197 0.700809 3.42308 1.2965 2.70513C1.89218 1.98718 2.80323 1.44017 4.04717 1.06411C5.2911 0.688037 7.00809 0.5 9.21563 0.5C11.4232 0.5 13.1402 0.688037 14.3841 1.06411C15.628 1.44017 16.5391 1.98718 17.1348 2.70513C17.7305 3.42308 18.0809 4.32906 18.221 5.38889C18.3787 6.48291 18.4313 7.71367 18.4313 9.11538ZM1.87466 9.11538C1.87466 10.1581 1.97978 10.9786 2.19003 11.5598C2.40027 12.141 2.78571 12.5855 3.32884 12.8761C3.88949 13.1667 4.64286 13.3547 5.58895 13.4231C6.55256 13.4915 7.76146 13.5256 9.23315 13.5256C10.7049 13.5256 11.9137 13.4915 12.8598 13.4231C13.8059 13.3547 14.5593 13.1667 15.1024 12.8761C15.6631 12.5855 16.0485 12.141 16.2588 11.5598C16.4865 10.9786 16.5916 10.1581 16.5916 9.11538C16.5916 8.07265 16.4865 7.25214 16.2588 6.65385C16.031 6.05556 15.6456 5.62821 15.1024 5.33761C14.5418 5.06411 13.8059 4.87606 12.8598 4.80769C11.9137 4.73931 10.7049 4.70513 9.23315 4.70513C7.76146 4.70513 6.55256 4.73931 5.58895 4.80769C4.62534 4.87606 3.87197 5.04701 3.32884 5.33761C2.76819 5.61111 2.40027 6.05556 2.19003 6.65385C1.97978 7.25214 1.87466 8.07265 1.87466 9.11538Z" fill="#F4FEFF"/>
  <path d="M22.4631 0.5C22.6371 0.5 22.7415 0.51716 22.7764 0.551483C22.8112 0.585807 22.8286 0.68878 22.8286 0.860397V8.94357C22.8286 10.0076 22.8982 10.8314 23.0548 11.4492C23.194 12.067 23.5072 12.5132 23.9771 12.8221C24.4469 13.131 25.0908 13.3026 25.9261 13.3884C26.7614 13.4571 27.8751 13.4914 29.2325 13.4914C30.5899 13.4914 31.7036 13.4571 32.5389 13.3884C33.3742 13.3198 34.0181 13.131 34.4705 12.8221C34.923 12.5304 35.2188 12.067 35.3928 11.4492C35.5494 10.8314 35.6364 10.0076 35.6364 8.94357V0.860397C35.6364 0.68878 35.6538 0.585807 35.6886 0.551483C35.7234 0.51716 35.8279 0.5 36.0019 0.5H37.2896C37.4637 0.5 37.5681 0.51716 37.6029 0.551483C37.6377 0.585807 37.6551 0.68878 37.6551 0.860397V8.94357C37.6551 10.3852 37.6029 11.6551 37.5159 12.7706C37.4114 13.869 37.1156 14.7957 36.5761 15.5508C36.0541 16.2888 35.2188 16.8551 34.0703 17.2498C32.9217 17.6274 31.3207 17.8333 29.2499 17.8333C27.1791 17.8333 25.5433 17.6446 24.4121 17.2498C23.281 16.8723 22.4457 16.3059 21.9237 15.5508C21.4016 14.8129 21.0884 13.8861 20.9839 12.7706C20.8795 11.6723 20.8447 10.3852 20.8447 8.94357V0.860397C20.8447 0.68878 20.8621 0.585807 20.8969 0.551483C20.9317 0.51716 21.0361 0.5 21.2102 0.5H22.4631Z" fill="#F4FEFF"/>
  <path d="M42.5707 0.5C42.7378 0.5 42.838 0.51716 42.8714 0.551483C42.9049 0.585807 42.9216 0.68878 42.9216 0.860397V8.94357C42.9216 10.0076 42.9884 10.8314 43.1387 11.4492C43.2724 12.067 43.5731 12.5132 44.0242 12.8221C44.4752 13.131 45.0933 13.3026 45.8952 13.3884C46.6971 13.4571 47.7663 13.4914 49.0694 13.4914C50.3724 13.4914 51.4416 13.4571 52.2435 13.3884C53.0454 13.3198 53.6635 13.131 54.0978 12.8221C54.5322 12.5304 54.8162 12.067 54.9833 11.4492C55.1336 10.8314 55.2171 10.0076 55.2171 8.94357V0.860397C55.2171 0.68878 55.2338 0.585807 55.2673 0.551483C55.3007 0.51716 55.4009 0.5 55.568 0.5H56.8042C56.9713 0.5 57.0715 0.51716 57.1049 0.551483C57.1383 0.585807 57.155 0.68878 57.155 0.860397V8.94357C57.155 10.3852 57.1049 11.6551 57.0214 12.7706C56.9211 13.869 56.6371 14.7957 56.1193 15.5508C55.6181 16.2888 54.8162 16.8551 53.7136 17.2498C52.611 17.6274 51.0741 17.8333 49.0861 17.8333C47.0981 17.8333 45.5277 17.6446 44.4418 17.2498C43.3559 16.8551 42.554 16.3059 42.0529 15.5508C41.5517 14.8129 41.251 13.8861 41.1507 12.7706C41.0505 11.6723 41.0171 10.3852 41.0171 8.94357V0.860397C41.0171 0.68878 41.0338 0.585807 41.0672 0.551483C41.1006 0.51716 41.2009 0.5 41.3679 0.5H42.5707Z" fill="#F4FEFF"/>
  <path d="M60.8813 17.8334C60.7079 17.8334 60.6038 17.8168 60.5691 17.7837C60.5344 17.7506 60.5171 17.6512 60.5171 17.4855V9.63262C60.5171 8.25754 60.6038 7.03156 60.7599 5.98782C60.916 4.92752 61.2976 4.04945 61.8873 3.33706C62.477 2.62467 63.3615 2.07795 64.5062 1.71347C65.6683 1.34899 67.2466 1.16675 69.2585 1.16675C71.2704 1.16675 72.8313 1.34899 73.9934 1.71347C75.1554 2.07795 76.04 2.62467 76.6297 3.33706C77.2194 4.04945 77.6009 4.92752 77.757 5.98782C77.9131 7.04813 77.9998 8.25754 77.9998 9.63262V17.4855C77.9998 17.6512 77.9825 17.7506 77.9478 17.7837C77.9131 17.8168 77.8091 17.8334 77.6356 17.8334H76.5429C76.3695 17.8334 76.2654 17.8168 76.2308 17.7837C76.1961 17.7506 76.1787 17.6512 76.1787 17.4855V14.172C76.1787 14.0064 76.1614 13.907 76.1267 13.8738C76.092 13.8407 75.9879 13.8241 75.8145 13.8241H62.7024C62.529 13.8241 62.4249 13.8407 62.3902 13.8738C62.3556 13.907 62.3382 14.0064 62.3382 14.172V17.4855C62.3382 17.6512 62.3209 17.7506 62.2862 17.7837C62.2515 17.8168 62.1474 17.8334 61.974 17.8334H60.8813ZM62.3382 10.3947C62.3382 10.5272 62.3556 10.6267 62.3902 10.6764C62.4249 10.7261 62.529 10.7426 62.7024 10.7426H75.8145C75.9879 10.7426 76.092 10.7261 76.1267 10.6929C76.1614 10.6598 76.1787 10.5604 76.1787 10.3947V9.63262C76.1787 8.60545 76.0747 7.79365 75.8665 7.21379C75.6584 6.63394 75.2942 6.20319 74.7739 5.92155C74.2535 5.63991 73.5424 5.45766 72.6405 5.39139C71.7387 5.32513 70.6113 5.29199 69.2585 5.29199C67.9056 5.29199 66.7609 5.32513 65.8764 5.39139C64.9745 5.45766 64.2634 5.63991 63.7431 5.92155C63.2228 6.20319 62.8585 6.63394 62.6504 7.21379C62.4423 7.79365 62.3382 8.58888 62.3382 9.63262V10.3947Z" fill="#F4FEFF"/>
</svg>