<svg xmlns="http://www.w3.org/2000/svg" width="28" height="30" viewBox="0 0 28 30" fill="none">
    <path d="M11.5777 0.279947C11.956 0.20385 12.5407 0.110843 12.8674 0.0770222C13.1941 0.0347461 13.8906 0.000925308 14.4151 0.000925308C14.9395 -0.0075299 15.765 0.0432013 16.2636 0.102388C16.7623 0.170029 17.3556 0.271492 17.5963 0.322223C17.8285 0.372954 18.396 0.525148 18.8431 0.668887C19.2902 0.812625 20.0468 1.10856 20.5197 1.33685C20.9926 1.55668 21.7492 1.97944 22.1963 2.27538C22.7208 2.61358 23.4 3.18008 24.0965 3.86496C24.8101 4.56674 25.369 5.20933 25.7301 5.73356C26.0224 6.17323 26.4523 6.91728 26.6759 7.38232C26.8994 7.84736 27.1832 8.53223 27.3122 8.90426C27.4325 9.27629 27.5873 9.84279 27.6647 10.1725C27.7421 10.4938 27.8194 11.3901 27.8452 12.1595C27.8882 13.2587 27.8624 13.7406 27.7421 14.4424C27.6647 14.9328 27.4841 15.6938 27.338 16.1335C27.1918 16.5731 26.9338 17.2411 26.7533 17.6131C26.5727 17.9852 26.1858 18.6447 25.9021 19.0674C25.6097 19.4986 25.0423 20.2004 24.621 20.6232C24.2083 21.0459 23.5548 21.6293 23.1765 21.9168C22.7896 22.1958 22.1275 22.6102 21.7148 22.83C21.2935 23.0498 20.5455 23.3627 20.0468 23.5233C19.5481 23.684 18.7915 23.8784 18.3702 23.9545C17.9231 24.0306 17.1063 24.0898 16.4356 24.0898C15.7478 24.0898 14.9567 24.0306 14.501 23.9545C14.0797 23.8784 13.4349 23.7262 13.0824 23.6079C12.7298 23.4895 12.1452 23.2612 11.7926 23.1006C11.4401 22.9314 10.8211 22.5848 10.417 22.3227C10.0128 22.0606 9.37659 21.5363 8.98968 21.1643C8.60276 20.7923 8.08688 20.2004 7.84613 19.8538C7.59679 19.5071 7.26147 18.9744 7.1067 18.67C6.95194 18.3656 6.72839 17.8583 6.60801 17.5286C6.48764 17.1988 6.33287 16.6154 6.25549 16.218C6.16951 15.8037 6.10932 15.0681 6.10932 14.4847C6.10932 13.9267 6.16951 13.1826 6.2383 12.8359C6.30708 12.4893 6.44465 11.9566 6.54783 11.6522C6.651 11.3478 6.90035 10.7813 7.1153 10.3839C7.32165 9.98652 7.75156 9.34393 8.06968 8.94653C8.38781 8.5576 8.96388 7.9911 9.3422 7.69516C9.72051 7.39923 10.417 6.97647 10.8898 6.73973C11.3627 6.51144 12.0592 6.24087 12.4375 6.13941C13.0136 5.98721 13.3575 5.95339 14.501 5.95339C15.7564 5.96185 15.9455 5.97876 16.6506 6.19014C17.0719 6.31697 17.7253 6.57908 18.1036 6.77355C18.4733 6.96802 19.0322 7.34004 19.3503 7.60216C19.6599 7.85581 20.0984 8.29548 20.3305 8.5745C20.5541 8.84507 20.8722 9.31856 21.027 9.62295C21.1903 9.92734 21.4053 10.4177 21.5085 10.7221C21.6374 11.1026 21.7148 11.5676 21.7406 12.2441C21.7836 13.005 21.7578 13.3686 21.6374 13.8928C21.5515 14.2818 21.3193 14.8905 21.0872 15.3302C20.7948 15.8967 20.5455 16.2434 20.0898 16.683C19.7115 17.0635 19.2644 17.3933 18.8861 17.5878C18.5507 17.7569 18.052 17.9598 17.7683 18.0443C17.4416 18.1373 16.9687 18.1965 16.4786 18.1965C15.9283 18.1965 15.5328 18.1458 15.1029 18.019C14.7762 17.9175 14.2689 17.6892 13.9852 17.5032C13.7014 17.3256 13.2973 16.9874 13.0824 16.7591C12.876 16.5309 12.6009 16.1335 12.4805 15.8798C12.2913 15.474 12.2655 15.3049 12.2655 14.4847C12.2655 13.6815 12.2913 13.5039 12.4633 13.191C12.5665 12.9966 12.7814 12.7006 12.9276 12.5231C13.0824 12.354 13.4005 12.1257 13.6412 12.0158C13.9078 11.8974 14.2345 11.8213 14.501 11.8213C14.7934 11.8213 15.0599 11.8805 15.3179 12.0158C15.5758 12.1511 15.7907 12.354 15.9627 12.6245C16.1691 12.9543 16.2206 13.1319 16.2206 13.5039C16.2206 13.7914 16.1605 14.0958 16.0659 14.2733C15.9627 14.4762 15.9455 14.5946 16.0057 14.6538C16.0573 14.7045 16.2636 14.7299 16.4614 14.7299C16.6592 14.7214 16.9859 14.6369 17.1836 14.5354C17.39 14.4424 17.6479 14.231 17.7597 14.0788C17.8801 13.9351 18.0348 13.6645 18.1036 13.487C18.1896 13.3094 18.2412 12.9205 18.2412 12.5569C18.2412 12.0327 18.2068 11.872 17.9489 11.3563C17.7769 11.0012 17.4932 10.6207 17.261 10.4008C17.0461 10.2064 16.6677 9.9527 16.4356 9.83433C16.1949 9.71596 15.7821 9.56376 15.507 9.49612C15.2405 9.42848 14.7848 9.3693 14.501 9.3693C14.2173 9.3693 13.7358 9.42848 13.4263 9.50458C13.1167 9.57222 12.6009 9.77515 12.2741 9.94425C11.9474 10.1134 11.4745 10.4431 11.2338 10.6799C10.9844 10.9081 10.6233 11.3478 10.4256 11.6522C10.2278 11.9566 9.96986 12.5062 9.84948 12.8782C9.67752 13.4109 9.62593 13.7406 9.61734 14.4001C9.61734 14.9413 9.66892 15.4486 9.7635 15.7953C9.84089 16.0996 10.0386 16.607 10.1934 16.9367C10.3482 17.2665 10.6577 17.7653 10.8813 18.0528C11.0962 18.3487 11.5347 18.7969 11.8528 19.059C12.1796 19.3126 12.79 19.6931 13.2113 19.9045C13.6326 20.1074 14.2345 20.3442 14.544 20.4202C14.9739 20.5386 15.4296 20.5724 16.5216 20.564C17.8801 20.564 17.9747 20.5555 18.7571 20.2934C19.2042 20.1497 19.9006 19.8453 20.2961 19.6255C20.7604 19.3633 21.3021 18.9575 21.7922 18.5009C22.2135 18.1035 22.7208 17.537 22.9271 17.2326C23.1249 16.9282 23.4172 16.4463 23.5634 16.1504C23.7096 15.8629 23.9245 15.2964 24.0449 14.8821C24.1653 14.4762 24.2942 13.7998 24.3286 13.3855C24.363 12.9712 24.363 12.261 24.3286 11.8213C24.2942 11.3816 24.1653 10.6714 24.0449 10.2571C23.9159 9.84279 23.658 9.19174 23.4688 8.81971C23.2797 8.44768 22.9873 7.93191 22.8154 7.67825C22.6434 7.4246 22.1017 6.81582 21.603 6.32542C21.027 5.75892 20.4337 5.27697 20.0038 5.01486C19.6255 4.77812 18.9892 4.45682 18.5851 4.28772C18.181 4.11016 17.5448 3.89878 17.1664 3.79731C16.7881 3.70431 16.1089 3.58593 15.6618 3.52675C15.2061 3.47602 14.4666 3.45065 13.9852 3.48447C13.5123 3.50984 12.7986 3.59439 12.3945 3.67049C11.9904 3.74658 11.3369 3.92414 10.9328 4.05942C10.5287 4.20316 9.96986 4.43145 9.68612 4.56674C9.40238 4.71048 8.84351 5.03177 8.4394 5.29388C8.03529 5.54754 7.35604 6.09713 6.93474 6.49452C6.51343 6.90037 5.91157 7.57679 5.61064 7.98264C5.3183 8.39695 4.9056 9.05645 4.69924 9.45385C4.50149 9.85124 4.21775 10.5192 4.07158 10.9335C3.93401 11.3478 3.75345 12.0581 3.66747 12.4977C3.5643 13.0304 3.51271 13.7068 3.51271 14.4847C3.51271 15.2626 3.5643 15.939 3.66747 16.4717C3.75345 16.9113 3.93401 17.6216 4.07158 18.0359C4.20915 18.4502 4.51008 19.1773 4.75083 19.6424C4.98298 20.1074 5.43008 20.8346 5.73101 21.2489C6.03194 21.6632 6.62521 22.3565 7.04651 22.7708C7.46782 23.1851 8.18146 23.7854 8.61996 24.1067C9.06706 24.4196 9.89247 24.9015 10.4599 25.1721C11.0274 25.4511 11.8614 25.7893 12.3085 25.9246C12.7556 26.0683 13.4779 26.2543 13.8992 26.3389C14.5096 26.4573 15.0599 26.4911 16.4786 26.4911C18.0005 26.4826 18.4218 26.4573 19.144 26.3051C19.6169 26.2036 20.3735 26.0007 20.8206 25.8485C21.2677 25.7048 22.0243 25.4004 22.4972 25.1805C22.9701 24.9522 23.6838 24.5548 24.0879 24.2927C24.492 24.0306 25.0079 23.6501 25.6613 23.109L26.0568 23.5402C26.2718 23.777 26.8049 24.3604 28 25.7132L27.6561 26.0007C27.4669 26.1613 26.9424 26.5587 26.4953 26.8716C26.0482 27.1844 25.326 27.6325 24.9047 27.8608C24.4834 28.0976 23.8213 28.4189 23.443 28.5795C23.0647 28.7486 22.4027 28.9938 21.9814 29.1376C21.56 29.2729 20.7604 29.4842 20.2188 29.6111C19.6771 29.7294 18.9032 29.8647 18.4991 29.9154C18.095 29.9577 17.1664 30 16.4356 30C15.7048 30 14.7762 29.9577 14.3721 29.907C13.968 29.8647 13.3489 29.7633 12.9964 29.6872C12.6439 29.6195 12.0248 29.4673 11.6207 29.3574C11.2166 29.239 10.4685 28.9769 9.94406 28.7655C9.41958 28.5626 8.57697 28.1568 8.06109 27.8608C7.5538 27.5734 6.73698 27.0491 6.25549 26.694C5.7826 26.3389 4.93999 25.5948 4.39831 25.0452C3.85663 24.4872 3.15159 23.6755 2.82486 23.2358C2.50674 22.7962 1.97366 21.8999 1.64693 21.2489C1.3116 20.5978 0.907495 19.6677 0.744132 19.1773C0.589366 18.6869 0.374415 17.8921 0.271238 17.4017C0.168061 16.9113 0.0562864 16.0574 0.0218941 15.4993C-0.0124982 14.9413 -0.0039001 14.0281 0.0304922 13.4701C0.0648844 12.912 0.168061 12.0581 0.271238 11.5676C0.374415 11.0772 0.57217 10.3332 0.709739 9.91888C0.855906 9.50458 1.08805 8.88735 1.23422 8.56605C1.37179 8.24475 1.68992 7.62752 1.93066 7.21322C2.18001 6.79891 2.60131 6.15632 2.86785 5.79274C3.14299 5.43762 3.68467 4.81194 4.07158 4.41454C4.46709 4.00869 5.06036 3.46756 5.38709 3.19699C5.71381 2.93488 6.34147 2.49521 6.76278 2.21619C7.18408 1.94562 7.88912 1.56514 8.31043 1.37067C8.73174 1.16774 9.48837 0.871812 9.98705 0.711163C10.4857 0.550514 11.1994 0.356044 11.5777 0.279947Z" fill="#111010"/>
</svg>