<svg xmlns="http://www.w3.org/2000/svg" width="24" height="24" viewBox="0 0 24 24" fill="none">
    <path d="M6.2381 3.61905C6.2381 5.06551 5.06551 6.2381 3.61905 6.2381C2.17259 6.2381 1 5.06551 1 3.61905C1 2.17259 2.17259 1 3.61905 1C5.06551 1 6.2381 2.17259 6.2381 3.61905Z" fill="#F4FEFF"/>
    <path d="M14.619 3.61905C14.619 5.06551 13.4465 6.2381 12 6.2381C10.5535 6.2381 9.38095 5.06551 9.38095 3.61905C9.38095 2.17259 10.5535 1 12 1C13.4465 1 14.619 2.17259 14.619 3.61905Z" fill="#F4FEFF"/>
    <path d="M23 3.61905C23 5.06551 21.8274 6.2381 20.381 6.2381C18.9345 6.2381 17.7619 5.06551 17.7619 3.61905C17.7619 2.17259 18.9345 1 20.381 1C21.8274 1 23 2.17259 23 3.61905Z" fill="#F4FEFF"/>
    <path d="M6.2381 12C6.2381 13.4465 5.06551 14.619 3.61905 14.619C2.17259 14.619 1 13.4465 1 12C1 10.5535 2.17259 9.38095 3.61905 9.38095C5.06551 9.38095 6.2381 10.5535 6.2381 12Z" fill="#F4FEFF"/>
    <path d="M14.619 12C14.619 13.4465 13.4465 14.619 12 14.619C10.5535 14.619 9.38095 13.4465 9.38095 12C9.38095 10.5535 10.5535 9.38095 12 9.38095C13.4465 9.38095 14.619 10.5535 14.619 12Z" fill="#F4FEFF"/>
    <path d="M23 12C23 13.4465 21.8274 14.619 20.381 14.619C18.9345 14.619 17.7619 13.4465 17.7619 12C17.7619 10.5535 18.9345 9.38095 20.381 9.38095C21.8274 9.38095 23 10.5535 23 12Z" fill="#F4FEFF"/>
    <path d="M6.2381 20.381C6.2381 21.8274 5.06551 23 3.61905 23C2.17259 23 1 21.8274 1 20.381C1 18.9345 2.17259 17.7619 3.61905 17.7619C5.06551 17.7619 6.2381 18.9345 6.2381 20.381Z" fill="#F4FEFF"/>
    <path d="M14.619 20.381C14.619 21.8274 13.4465 23 12 23C10.5535 23 9.38095 21.8274 9.38095 20.381C9.38095 18.9345 10.5535 17.7619 12 17.7619C13.4465 17.7619 14.619 18.9345 14.619 20.381Z" fill="#F4FEFF"/>
    <path d="M23 20.381C23 21.8274 21.8274 23 20.381 23C18.9345 23 17.7619 21.8274 17.7619 20.381C17.7619 18.9345 18.9345 17.7619 20.381 17.7619C21.8274 17.7619 23 18.9345 23 20.381Z" fill="#F4FEFF"/>
</svg>