<svg width="56" height="73" viewBox="0 0 56 73" fill="none" xmlns="http://www.w3.org/2000/svg">
<path d="M33.1739 2.21324C32.0869 1.97391 30.9004 2.03072 29.7907 2.03934C23.855 2.08505 17.6519 3.64159 12.6243 6.85505C4.34359 12.1483 0.0353584 23.7231 2.58781 33.2189C5.39184 43.6496 20.4999 48.4998 26.9999 55.9998C28.9999 57.4998 29.4999 57.4998 30.9999 55.9998C32.4999 52.9998 40.8664 47.4279 44.7673 43.889C48.9181 40.1235 51.9169 32.3533 52.4999 26.9998C52.5651 26.4004 52.4878 24.9445 52.4999 24.9998C52.4999 24.9998 52.2068 22.2463 51.9999 20.9998C51.5456 18.2632 51.0265 16.5709 49.6823 13.932C46.6088 7.89849 41.6042 5.03533 35.4534 2.88104C34.7204 2.62432 33.9633 2.4746 33.2319 2.23295L33.1739 2.21324ZM31.2197 4.27792C31.2956 4.29084 31.5061 4.30244 31.5596 4.34434L31.5948 4.37432C32.1121 4.78888 33.4152 4.95086 34.0805 5.18124L36.5101 6.12497C43.2964 9.03865 47.8824 14.8869 48.8584 22.1868C49.7033 28.5039 47.3758 34.5191 43.5704 39.4761C41.4255 42.2698 38.5957 45.0111 35.2815 46.3352L33.3616 47.0281C33.0164 47.1468 32.475 47.2717 32.1992 47.5061L32.2691 47.5426L32.2658 47.5468C23.7901 48.8039 18.3096 47.5693 12.1664 40.9715C6.34732 34.7216 5.13843 25.2225 8.97016 17.6046C9.16842 17.0339 9.51821 16.4524 9.82445 15.9326C13.8142 9.16005 21.3549 4.20107 29.3279 4.18202C29.9537 4.18053 30.5998 4.16132 31.2197 4.27792ZM32.2691 47.5426L32.1992 47.5061C32.475 47.2717 33.0164 47.1468 33.3616 47.0281L35.2815 46.3352C38.5957 45.0111 41.4255 42.2698 43.5704 39.4761C47.3758 34.5191 49.7033 28.5039 48.8584 22.1868C47.8824 14.8869 43.2964 9.03865 36.5101 6.12497L34.0805 5.18124C33.4152 4.95086 32.1121 4.78888 31.5948 4.37432L31.5596 4.34434C38.4723 5.04361 44.1361 8.34799 47.5368 14.5757C51.4528 21.7474 51.6711 27.8679 48.0437 35.0174C44.7808 41.4488 39.7988 46.7828 32.2691 47.5426Z" fill="#111010"/>
<path d="M29.328 4.18235C21.355 4.20139 13.8142 9.16038 9.82449 15.9329C9.51825 16.4527 9.16845 17.0342 8.9702 17.6049C5.13847 25.2229 6.34736 34.7219 12.1664 40.9718C18.3096 47.5696 23.7902 48.8042 32.2659 47.5471L32.2692 47.543C32.6955 47.5471 35.1479 47.1271 35.5 47C38.8142 45.6758 42.8552 43.2938 45 40.5C48.8054 35.543 51.3449 28.3171 50.5 22C49.524 14.7001 44.2863 8.41382 37.5 5.50014L34.5 4.50002C33.8347 4.26963 32.5 4.18237 31.759 4.18237C31 4.18236 29.9985 4.18075 29.328 4.18235Z" fill="#F4FEFF"/>
<g clip-path="url(#clip0_1420_1618)">
<path d="M24.0852 30.8416C27.6006 30.8416 30.4504 27.9824 30.4504 24.4555C30.4504 20.9285 27.6006 18.0693 24.0852 18.0693C20.5698 18.0693 17.72 20.9285 17.72 24.4555C17.72 27.9824 20.5698 30.8416 24.0852 30.8416Z" fill="#F4FEFF"/>
<path d="M36.5661 29.0886C39.4381 29.0886 41.7664 26.7527 41.7664 23.8712C41.7664 20.9897 39.4381 18.6538 36.5661 18.6538C33.694 18.6538 31.3657 20.9897 31.3657 23.8712C31.3657 26.7527 33.694 29.0886 36.5661 29.0886Z" fill="#F4FEFF"/>
<path d="M17.4286 16.3164C19.0002 16.3164 20.2743 15.0382 20.2743 13.4614C20.2743 11.8847 19.0002 10.6064 17.4286 10.6064C15.857 10.6064 14.583 11.8847 14.583 13.4614C14.583 15.0382 15.857 16.3164 17.4286 16.3164Z" fill="#F0749E"/>
<path d="M22.0633 11.9086C23.2029 11.9086 24.1268 10.9817 24.1268 9.83834C24.1268 8.69496 23.2029 7.76807 22.0633 7.76807C20.9236 7.76807 19.9998 8.69496 19.9998 9.83834C19.9998 10.9817 20.9236 11.9086 22.0633 11.9086Z" fill="#F0749E"/>
<path d="M22.2547 17.0008C23.2243 17.0008 24.0103 16.2122 24.0103 15.2394C24.0103 14.2666 23.2243 13.478 22.2547 13.478C21.285 13.478 20.499 14.2666 20.499 15.2394C20.499 16.2122 21.285 17.0008 22.2547 17.0008Z" fill="#F0749E"/>
<path d="M18.7599 18.9878C19.4263 18.9878 19.9664 18.4458 19.9664 17.7773C19.9664 17.1088 19.4263 16.5669 18.7599 16.5669C18.0936 16.5669 17.5535 17.1088 17.5535 17.7773C17.5535 18.4458 18.0936 18.9878 18.7599 18.9878Z" fill="#F0749E"/>
<path d="M13.7261 23.5121C15.6515 23.5121 17.2124 21.9461 17.2124 20.0144C17.2124 18.0826 15.6515 16.5166 13.7261 16.5166C11.8006 16.5166 10.2397 18.0826 10.2397 20.0144C10.2397 21.9461 11.8006 23.5121 13.7261 23.5121Z" fill="#F0749E"/>
<path d="M12.7609 31.8433C14.838 31.8433 16.5218 30.154 16.5218 28.0701C16.5218 25.9862 14.838 24.2969 12.7609 24.2969C10.6838 24.2969 9 25.9862 9 28.0701C9 30.154 10.6838 31.8433 12.7609 31.8433Z" fill="#F0749E"/>
<path d="M19.567 42.495C21.6349 42.495 23.3113 40.8132 23.3113 38.7385C23.3113 36.6638 21.6349 34.9819 19.567 34.9819C17.4991 34.9819 15.8228 36.6638 15.8228 38.7385C15.8228 40.8132 17.4991 42.495 19.567 42.495Z" fill="#F0749E"/>
<path d="M19.251 34.5979C20.455 34.5979 21.431 33.6187 21.431 32.4108C21.431 31.2028 20.455 30.2236 19.251 30.2236C18.0471 30.2236 17.071 31.2028 17.071 32.4108C17.071 33.6187 18.0471 34.5979 19.251 34.5979Z" fill="#F0749E"/>
<path d="M24.2017 35.3492C25.061 35.3492 25.7576 34.6502 25.7576 33.7881C25.7576 32.926 25.061 32.2271 24.2017 32.2271C23.3424 32.2271 22.6458 32.926 22.6458 33.7881C22.6458 34.6502 23.3424 35.3492 24.2017 35.3492Z" fill="#F0749E"/>
<path d="M24.6343 38.5551C25.2731 38.5551 25.7909 38.0356 25.7909 37.3947C25.7909 36.7539 25.2731 36.2344 24.6343 36.2344C23.9956 36.2344 23.4778 36.7539 23.4778 37.3947C23.4778 38.0356 23.9956 38.5551 24.6343 38.5551Z" fill="#F0749E"/>
<path d="M14.0339 37.3529C15.4354 37.3529 16.5716 36.213 16.5716 34.8068C16.5716 33.4007 15.4354 32.2607 14.0339 32.2607C12.6323 32.2607 11.4961 33.4007 11.4961 34.8068C11.4961 36.213 12.6323 37.3529 14.0339 37.3529Z" fill="#F0749E"/>
<path d="M25.4081 44.8491C26.6948 44.8491 27.7379 43.8026 27.7379 42.5117C27.7379 41.2208 26.6948 40.1743 25.4081 40.1743C24.1214 40.1743 23.0784 41.2208 23.0784 42.5117C23.0784 43.8026 24.1214 44.8491 25.4081 44.8491Z" fill="#F0749E"/>
<path d="M33.0879 43.6139C36.9526 43.6139 40.0855 40.4707 40.0855 36.5933C40.0855 32.716 36.9526 29.5728 33.0879 29.5728C29.2233 29.5728 26.0903 32.716 26.0903 36.5933C26.0903 40.4707 29.2233 43.6139 33.0879 43.6139Z" fill="#F0749E"/>
<path d="M42.6484 34.2643C44.56 34.2643 46.1097 32.7095 46.1097 30.7916C46.1097 28.8736 44.56 27.3188 42.6484 27.3188C40.7367 27.3188 39.187 28.8736 39.187 30.7916C39.187 32.7095 40.7367 34.2643 42.6484 34.2643Z" fill="#F0749E"/>
<path d="M41.9911 37.8286C42.8734 37.8286 43.5887 37.111 43.5887 36.2258C43.5887 35.3406 42.8734 34.623 41.9911 34.623C41.1088 34.623 40.3936 35.3406 40.3936 36.2258C40.3936 37.111 41.1088 37.8286 41.9911 37.8286Z" fill="#F0749E"/>
<path d="M44.795 27.3188C46.0082 27.3188 46.9916 26.3321 46.9916 25.115C46.9916 23.8978 46.0082 22.9111 44.795 22.9111C43.5819 22.9111 42.5984 23.8978 42.5984 25.115C42.5984 26.3321 43.5819 27.3188 44.795 27.3188Z" fill="#F0749E"/>
<path d="M45.2942 22.4771C45.9145 22.4771 46.4174 21.9725 46.4174 21.3501C46.4174 20.7277 45.9145 20.2231 45.2942 20.2231C44.6738 20.2231 44.1709 20.7277 44.1709 21.3501C44.1709 21.9725 44.6738 22.4771 45.2942 22.4771Z" fill="#F0749E"/>
<path d="M43.3056 20.4315C44.4176 20.4315 45.3191 19.527 45.3191 18.4113C45.3191 17.2956 44.4176 16.3911 43.3056 16.3911C42.1935 16.3911 41.292 17.2956 41.292 18.4113C41.292 19.527 42.1935 20.4315 43.3056 20.4315Z" fill="#F0749E"/>
<path d="M39.029 17.677C40.7798 17.677 42.1992 16.253 42.1992 14.4965C42.1992 12.7399 40.7798 11.3159 39.029 11.3159C37.2782 11.3159 35.8589 12.7399 35.8589 14.4965C35.8589 16.253 37.2782 17.677 39.029 17.677Z" fill="#F0749E"/>
<path d="M29.8679 18.303C32.9789 18.303 35.5009 15.7727 35.5009 12.6515C35.5009 9.53026 32.9789 7 29.8679 7C26.7569 7 24.2349 9.53026 24.2349 12.6515C24.2349 15.7727 26.7569 18.303 29.8679 18.303Z" fill="#F0749E"/>
<path d="M27.7047 22.9858C27.8129 23.303 27.8711 23.7371 27.8711 24.2964C27.8711 24.8557 27.8129 25.2898 27.7047 25.5987C27.5965 25.9076 27.3969 26.1413 27.1223 26.2999C26.8477 26.4585 26.4649 26.5504 25.9907 26.5921C25.5164 26.6255 24.909 26.6505 24.1685 26.6505C23.4279 26.6505 22.8122 26.6338 22.3379 26.5921C21.8554 26.5587 21.4726 26.4585 21.198 26.2999C20.9235 26.1413 20.7321 25.9159 20.6239 25.5987C20.5157 25.2898 20.4658 24.8557 20.4658 24.2964C20.4658 23.7371 20.5157 23.303 20.6239 22.9858C20.7321 22.6686 20.9235 22.4349 21.198 22.2846C21.4726 22.1343 21.8554 22.0425 22.3379 22.0091C22.8205 21.9757 23.4279 21.9507 24.1685 21.9507C24.909 21.9507 25.5164 21.9674 25.9907 22.0091C26.4649 22.0425 26.8394 22.1427 27.1223 22.2846C27.3969 22.4349 27.5965 22.6686 27.7047 22.9858Z" fill="#F0749E"/>
<path d="M28.1124 29.1049C28.0875 29.0715 28.0625 29.0381 28.0375 29.0047L27.921 28.8461L27.8711 28.7793C27.8545 28.7626 27.8462 28.746 27.8295 28.7293L27.8212 28.7209C27.713 28.5957 27.6298 28.5039 27.5549 28.4538C27.4717 28.3953 27.3802 28.3703 27.297 28.3703C27.1888 28.3703 27.064 28.4037 26.9392 28.4705C26.8061 28.5373 26.6397 28.604 26.4317 28.6625C26.1488 28.7376 25.8159 28.7877 25.4415 28.8211C25.0671 28.8545 24.6427 28.8712 24.1685 28.8712C23.0535 28.8712 22.1882 28.771 21.5641 28.5706C20.9401 28.3703 20.4825 28.0781 20.1829 27.6941C19.8834 27.3101 19.7003 26.8343 19.6338 26.2666C19.5672 25.699 19.5339 25.0395 19.5339 24.2965C19.5339 23.5536 19.5672 22.8941 19.6338 22.3264C19.7003 21.7588 19.8834 21.283 20.1829 20.8906C20.4825 20.5066 20.9401 20.2144 21.5641 20.0141C22.1882 19.8137 23.0535 19.7136 24.1685 19.7136C25.2834 19.7136 26.1488 19.8137 26.7728 20.0141C27.3969 20.2144 27.8545 20.5066 28.154 20.8906C28.4536 21.2746 28.6366 21.7504 28.7032 22.3264C28.7697 22.8941 28.803 23.5536 28.803 24.2965C28.803 24.6972 28.7947 25.0645 28.7864 25.4152C28.7697 25.7658 28.7365 26.083 28.6782 26.3835C28.6449 26.5588 28.6117 26.7007 28.595 26.8092C28.5784 26.9178 28.5701 27.0179 28.5701 27.1098C28.5701 27.235 28.595 27.3352 28.6533 27.4186C28.7115 27.5021 28.803 27.6273 28.9445 27.8026L29.2024 28.1366C29.2191 28.1616 29.2357 28.1783 29.2523 28.2033C30.334 26.7592 30.8332 24.8559 30.4172 22.8357C29.893 20.323 27.9294 18.3445 25.4332 17.8103C21.1481 16.9003 17.3789 20.1727 17.4205 24.3216C17.4538 27.9195 20.4076 30.858 23.9937 30.8496C25.6246 30.8496 27.1056 30.2569 28.2539 29.2719L28.1124 29.1049Z" fill="#F0749E"/>
<path d="M33.5956 22.544C33.504 22.8111 33.4541 23.17 33.4541 23.6375C33.4541 24.105 33.504 24.464 33.5956 24.7228C33.6871 24.9815 33.8535 25.1735 34.0781 25.3071C34.3111 25.4323 34.6273 25.5158 35.0184 25.5492C35.4178 25.5826 35.917 25.5993 36.541 25.5993C37.1651 25.5993 37.6643 25.5826 38.072 25.5492C38.4714 25.5158 38.7876 25.4407 39.0206 25.3071C39.2535 25.1819 39.4116 24.9815 39.5032 24.7228C39.5947 24.464 39.6363 24.105 39.6363 23.6375C39.6363 23.17 39.5947 22.8111 39.5032 22.544C39.4199 22.2768 39.2535 22.0848 39.0206 21.9596C38.7876 21.8344 38.4714 21.7593 38.072 21.7259C37.6726 21.6925 37.1651 21.6758 36.541 21.6758C35.917 21.6758 35.4178 21.6925 35.0184 21.7259C34.619 21.7593 34.3111 21.8344 34.0781 21.9596C33.8452 22.0848 33.6871 22.2768 33.5956 22.544Z" fill="#F0749E"/>
<path d="M33.1463 27.7696C34.1032 28.5877 35.3429 29.0802 36.6992 29.0802C39.6863 29.0802 42.1492 26.6427 42.1741 23.6374C42.2074 20.1898 39.0622 17.46 35.501 18.2197C33.4209 18.6621 31.7817 20.315 31.3491 22.4019C30.9996 24.0799 31.4156 25.666 32.3143 26.868C32.3226 26.8514 32.3392 26.8347 32.3559 26.8096L32.5722 26.5341C32.6887 26.3922 32.7636 26.2837 32.8135 26.2169C32.8634 26.1501 32.8801 26.0667 32.8801 25.9581C32.8801 25.883 32.8717 25.7995 32.8551 25.7077C32.8385 25.6159 32.8135 25.499 32.7885 25.3487C32.7386 25.0983 32.7053 24.8312 32.697 24.5473C32.6887 24.2552 32.6804 23.9463 32.6804 23.6207C32.6804 23.003 32.7053 22.452 32.7636 21.9762C32.8218 21.5004 32.9716 21.108 33.2212 20.7825C33.4708 20.4652 33.8536 20.2231 34.3694 20.0562C34.8853 19.8892 35.6092 19.8058 36.5411 19.8058C37.473 19.8058 38.1886 19.8892 38.7128 20.0562C39.2287 20.2231 39.6114 20.4652 39.861 20.7825C40.1106 21.0997 40.2604 21.5004 40.3186 21.9762C40.3769 22.452 40.4019 22.9946 40.4019 23.6207C40.4019 24.2468 40.3769 24.7894 40.3186 25.2653C40.2604 25.7411 40.1106 26.1334 39.861 26.459C39.6114 26.7762 39.2287 27.0183 38.7128 27.1853C38.1969 27.3522 37.473 27.4357 36.5411 27.4357C36.15 27.4357 35.8006 27.419 35.4844 27.394C35.1682 27.3689 34.8936 27.3272 34.6607 27.2604C34.4859 27.2103 34.3445 27.1519 34.2363 27.1018C34.1281 27.0434 34.0283 27.0183 33.9368 27.0183C33.8619 27.0183 33.7953 27.0434 33.7204 27.0851C33.6539 27.1268 33.579 27.202 33.4958 27.3105C33.4958 27.3105 33.4958 27.3188 33.4875 27.3188C33.4791 27.3355 33.4625 27.3439 33.4542 27.3606L33.4126 27.419L33.3127 27.5526C33.2961 27.5776 33.2711 27.611 33.2462 27.6361L33.1463 27.7696Z" fill="#F0749E"/>
</g>
<path d="M33.9615 66.8193C34.0111 67.0338 33.9993 67.268 33.9975 67.487C33.9881 68.6584 33.6659 69.8826 33.0007 70.8748C31.9051 72.509 29.5093 73.3593 27.5438 72.8555C25.3847 72.3022 24.0048 70.1077 24.002 68.0537C24.0018 67.9 23.9932 67.7392 24.0132 67.5867L24.0232 67.5268C24.2187 66.5108 24.6027 65.3011 25.3352 64.5313C26.1146 63.7121 27.7229 63.1203 28.831 63.0052C28.9551 62.9924 29.2564 63.0076 29.245 63.0052C29.245 63.0052 29.815 63.0631 30.073 63.1039C30.6394 63.1936 30.9897 63.296 31.5359 63.5613C32.7848 64.1679 33.3774 65.1555 33.8233 66.3694C33.8764 66.5141 33.9074 66.6635 33.9574 66.8078L33.9615 66.8193Z" fill="#111010"/>
<defs>
<clipPath id="clip0_1420_1618">
<rect width="38" height="38" fill="white" transform="translate(9 7)"/>
</clipPath>
</defs>
</svg>
